HIERARCHY
ROOT Hips
{
  OFFSET 59.9247 94.8494 237.314
  CHANNELS 6 Xposition Yposition Zposition Zrotation Xrotation Yrotation
  JOINT RightUpLeg
  {
    OFFSET -8.9458 -8.66707 0.101652
    CHANNELS 3 Zrotation Xrotation Yrotation
    JOINT RightLeg
    {
      OFFSET 0 -44.4227 1.3727
      CHANNELS 3 Zrotation Xrotation Yrotation
      JOINT RightFoot
      {
        OFFSET 0.253549 -42.0924 -1.46059
        CHANNELS 3 Zrotation Xrotation Yrotation
        JOINT RightToes
        {
          OFFSET 0.04 -4.41509 8.4991
          CHANNELS 3 Zrotation Xrotation Yrotation
          End Site
          {
            OFFSET -0.08 -0.137448 9.77979
          }
        }
      }
    }
  }
  JOINT Spine
  {
    OFFSET 0 11.8905 0
    CHANNELS 3 Zrotation Xrotation Yrotation
    JOINT Spine1
    {
      OFFSET 0 25.6574 0.127663
      CHANNELS 3 Zrotation Xrotation Yrotation
      JOINT HEad
      {
        OFFSET 0 8.73416 0.011341
        CHANNELS 3 Zrotation Xrotation Yrotation
        End Site
        {
          OFFSET -0.29 12.7742 2.51395
        }
      }
      JOINT LeftShoulder1
      {
        OFFSET 8.99 -0.362252 -0.22
        CHANNELS 3 Zrotation Xrotation Yrotation
        JOINT LeftArm
        {
          OFFSET 10.2827 -0.00338 0.322123
          CHANNELS 3 Zrotation Xrotation Yrotation
          JOINT LeftForeArm
          {
            OFFSET 32.7669 0.099144 -1.42434
            CHANNELS 3 Zrotation Xrotation Yrotation
            JOINT LeftHand
            {
              OFFSET 27.5643 0.085362 1.02216
              CHANNELS 3 Zrotation Xrotation Yrotation
              End Site
              {
                OFFSET 16.7443 -0.6 1.50291
              }
            }
          }
        }
      }
      JOINT RightShoulder
      {
        OFFSET -8.99 -0.362252 -0.22
        CHANNELS 3 Zrotation Xrotation Yrotation
        JOINT RightArm
        {
          OFFSET -10.2827 -0.00338 0.322123
          CHANNELS 3 Zrotation Xrotation Yrotation
          JOINT RightForeArm
          {
            OFFSET -32.8971 0.099144 -1.42434
            CHANNELS 3 Zrotation Xrotation Yrotation
            JOINT RightHand
            {
              OFFSET -27.4921 0.085362 1.02216
              CHANNELS 3 Zrotation Xrotation Yrotation
              End Site
              {
                OFFSET -16.6312 -0.6 1.50291
              }
            }
          }
        }
      }
    }
  }
  JOINT LeftUpLeg
  {
    OFFSET 8.9458 -8.66707 0.101652
    CHANNELS 3 Zrotation Xrotation Yrotation
    JOINT LeftLeg
    {
      OFFSET 0 -44.4227 1.3727
      CHANNELS 3 Zrotation Xrotation Yrotation
      JOINT LeftFoot
      {
        OFFSET -0.253549 -42.0924 -1.46059
        CHANNELS 3 Zrotation Xrotation Yrotation
        JOINT LeftToes
        {
          OFFSET -0.04 -4.41509 8.4991
          CHANNELS 3 Zrotation Xrotation Yrotation
          End Site
          {
            OFFSET 0.08 -0.047448 9.77979
          }
        }
      }
    }
  }
}
MOTION
Frames:	12
Frame Time:	0.0166667
0	103.906	0	1.61866	2.48383	157.501	-0.0289098	2.1768	4.16635	3.12101	10.5753	-15.3438	2.31405	-8.55441	-0.866991	0.0462048	0.000533964	0.662642	-0.0384092	-2.90065	-0.240664	-0.0892295	-5.79834	-0.484452	2.17857	7.07807	25.0528	7.95E-16	0.00E+00	0.00E+00	1.8978	-14.7068	-6.34197	0.554837	9.05175	-8.40169	-0.0283211	11.2661	5.6124	7.95E-16	0.00E+00	0.00E+00	-5.54265	-13.3055	-7.10301	-0.804668	14.7615	8.9813	2.79436	12.4891	-7.23307	-1.21089	3.15006	19.1449	0.661054	9.88654	0.0562788	-5.56596	-16.6248	-1.34914	1.53E-14	3.42E-14	7.16E-15
0.0122	103.904	-0.003	1.62163	2.4864	157.437	-0.0308224	2.17069	4.19445	3.12229	10.5993	-15.3226	2.30963	-8.56072	-0.850426	0.0462048	0.000533964	0.662642	-0.0332052	-2.8947	-0.236691	-0.0785742	-5.78646	-0.476219	2.18828	7.0844	25.0549	7.95E-16	3.18E-15	6.36E-15	1.98404	-14.7187	-6.27004	0.592983	8.90491	-8.33664	0.0251899	11.294	5.66552	7.95E-16	3.18E-15	6.36E-15	-5.62064	-13.1375	-7.03294	-0.786966	14.6252	9.06036	2.63087	12.4661	-7.15565	-1.21885	3.15035	19.1542	0.666433	9.90402	0.0824682	-5.59338	-16.6097	-1.47319	1.35E-14	3.10E-14	4.77E-15
0.0127	103.903	-0.02	1.63033	2.49285	157.38	-0.0154729	2.16534	4.2317	3.11653	10.6212	-15.321	2.30726	-8.56724	-0.999659	0.0462048	0.000533964	0.662642	-0.0279749	-2.88805	-0.233511	-0.0679042	-5.77318	-0.469572	2.19779	7.09951	25.0473	7.95E-16	0.00E+00	-6.36E-15	2.05084	-14.7331	-6.20847	0.632829	8.76738	-8.28459	0.103999	11.2763	5.73212	7.95E-16	0.00E+00	-6.36E-15	-5.69473	-13.0195	-6.96108	-0.757313	14.5148	9.07856	2.55666	12.4547	-7.11199	-1.22447	3.15136	19.161	0.673201	9.9235	0.112979	-5.60207	-16.6119	-1.38572	1.35E-14	3.10E-14	5.57E-15
0.0335	103.903	-0.017	1.63602	2.495	157.331	-0.0158675	2.17158	4.25965	3.1182	10.6377	-15.3064	2.311	-8.56977	-0.879291	0.0462048	0.000533964	0.662642	-0.0213314	-2.8843	-0.232153	-0.0539602	-5.76571	-0.459257	2.20861	7.1243	25.0341	2.65E-31	4.77E-15	-3.18E-15	2.09628	-14.7478	-6.1641	0.660599	8.64732	-8.24697	0.183896	11.2332	5.82081	2.65E-31	4.77E-15	-3.18E-15	-5.74381	-12.9711	-6.9156	-0.759593	14.4487	9.08253	2.58387	12.4717	-7.12317	-1.22512	3.15446	19.1604	0.68293	9.94435	0.13092	-5.61987	-16.6135	-1.33846	1.56E-14	3.26E-14	7.16E-15
0.0388	103.904	-0.032	1.63704	2.50428	157.291	-0.0158658	2.17527	4.27055	3.11701	10.6542	-15.2817	2.30517	-8.57153	-0.84525	0.0462048	0.000533964	0.662642	-0.0191103	-2.88277	-0.231109	-0.0457148	-5.75794	-0.451414	2.22705	7.14847	25.0202	-7.95E-16	-1.59E-15	-3.18E-15	2.12367	-14.7556	-6.1331	0.673515	8.57351	-8.21672	0.220851	11.1842	5.89571	-7.95E-16	-1.59E-15	-3.18E-15	-5.76139	-12.9929	-6.90148	-0.794209	14.4559	9.09593	2.62291	12.4883	-7.16399	-1.23368	3.16425	19.1528	0.687519	9.9594	0.145146	-5.63862	-16.6081	-1.31687	1.40E-14	3.02E-14	5.57E-15
0.0481	103.905	-0.042	1.63581	2.50976	157.274	-0.028091	2.18586	4.26025	3.11272	10.6636	-15.2536	2.30661	-8.57612	-0.853283	0.0462048	0.000533964	0.662642	-0.0185444	-2.88185	-0.230409	-0.0443455	-5.75244	-0.44923	2.25487	7.16619	24.9877	-7.95E-16	-1.59E-15	-6.36E-15	2.14397	-14.7558	-6.12636	0.668424	8.56091	-8.20417	0.169173	11.1807	5.95846	-7.95E-16	-1.59E-15	-6.36E-15	-5.7735	-13.0379	-6.90636	-0.826048	14.5201	9.09118	2.63171	12.479	-7.18812	-1.24613	3.16888	19.13	0.697531	9.9702	0.157984	-5.66476	-16.5926	-1.37668	1.41E-14	3.10E-14	5.57E-15
0.0618	103.906	-0.048	1.62792	2.51245	157.271	-0.0426728	2.19501	4.25325	3.10905	10.6676	-15.2371	2.30307	-8.57971	-0.685708	0.0462048	0.000533964	0.662642	-0.0191373	-2.88146	-0.230081	-0.0459154	-5.74916	-0.449425	2.28708	7.18045	24.9607	0.00E+00	-1.59E-15	0.00E+00	2.15954	-14.7528	-6.12058	0.658043	8.58664	-8.20722	0.0859933	11.1841	6.00744	0.00E+00	-1.59E-15	0.00E+00	-5.77616	-13.0623	-6.9038	-0.840983	14.6251	9.05628	2.62789	12.4767	-7.20002	-1.26311	3.17081	19.1061	0.705223	9.97188	0.171465	-5.67949	-16.5829	-1.34784	1.26E-14	3.26E-14	5.57E-15
0.0648	103.908	-0.07	1.61541	2.50877	157.286	-0.041955	2.19682	4.25186	3.10897	10.6659	-15.246	2.30213	-8.58204	-0.797107	0.0462048	0.000533964	0.662642	-0.0203925	-2.88151	-0.230155	-0.0490823	-5.74808	-0.451145	2.31396	7.18796	24.9301	1.59E-15	1.59E-15	3.18E-15	2.16163	-14.7493	-6.1279	0.646363	8.57072	-8.21802	0.0312305	11.1746	6.02228	1.59E-15	1.59E-15	3.18E-15	-5.78806	-13.0446	-6.92332	-0.836968	14.7081	9.01118	2.62657	12.4996	-7.21046	-1.28283	3.16738	19.0829	0.709629	9.96589	0.182648	-5.69191	-16.568	-1.34245	1.22E-14	3.26E-14	7.16E-15
0.0684	103.91	-0.089	1.60159	2.49594	157.305	-0.0418361	2.19767	4.27127	3.11126	10.6582	-15.2731	2.30886	-8.5834	-0.911295	0.0462048	0.000533964	0.662642	-0.0218134	-2.88194	-0.230658	-0.0525028	-5.74899	-0.453536	2.32934	7.19235	24.9034	7.95E-16	1.59E-15	3.18E-15	2.16124	-14.7465	-6.13431	0.626618	8.524	-8.23252	0.0140869	11.1565	6.02166	7.95E-16	1.59E-15	3.18E-15	-5.7828	-13.0103	-6.95818	-0.838505	14.7413	8.97111	2.63648	12.5184	-7.22885	-1.29617	3.15892	19.0782	0.70935	9.95572	0.178246	-5.70566	-16.5502	-1.37507	1.35E-14	3.26E-14	5.57E-15
0.0729	103.913	-0.12	1.58424	2.47923	157.333	-0.0435041	2.19841	4.29185	3.11388	10.6441	-15.3075	2.31458	-8.58361	-1.11753	0.0462048	0.000533964	0.662642	-0.0229038	-2.88267	-0.231622	-0.0569959	-5.75364	-0.457887	2.33115	7.19388	24.8822	7.95E-16	0.00E+00	9.54E-15	2.13867	-14.7453	-6.15264	0.613779	8.48628	-8.24124	0.0189592	11.1462	6.03394	7.95E-16	0.00E+00	9.54E-15	-5.76769	-12.9755	-7.00606	-0.839133	14.7213	8.94678	2.64393	12.5111	-7.24443	-1.30057	3.15094	19.0904	0.697042	9.94271	0.161486	-5.7126	-16.5378	-1.36979	1.38E-14	3.18E-14	4.77E-15
0.0799	103.915	-0.143	1.56477	2.46021	157.368	-0.0550959	2.19903	4.30826	3.11521	10.6285	-15.3328	2.32631	-8.58352	-1.20353	0.0462048	0.000533964	0.662642	-0.0241043	-2.88362	-0.233073	-0.0606058	-5.7607	-0.464701	2.31678	7.18788	24.8639	2.39E-15	0.00E+00	0.00E+00	2.0861	-14.7727	-6.17816	0.604628	8.47458	-8.2572	0.08713	11.1423	6.01715	2.39E-15	0.00E+00	0.00E+00	-5.76672	-12.9743	-7.07737	-0.827764	14.7298	8.94714	2.66153	12.4958	-7.25831	-1.30244	3.14173	19.1145	0.682206	9.9246	0.126685	-5.73123	-16.5047	-1.52644	1.52E-14	3.02E-14	5.57E-15
0.09	103.92	-0.165	1.53844	2.4413	157.403	-0.0763364	2.19952	4.32101	3.11782	10.6065	-15.361	2.33105	-8.58344	-1.101	0.0462048	0.000533964	0.662642	-0.0263569	-2.88472	-0.235043	-0.0643745	-5.76654	-0.472548	2.29162	7.16799	24.8626	8.83E-32	1.59E-15	-3.18E-15	2.00883	-14.8343	-6.1916	0.595161	8.47694	-8.28292	0.187252	11.1077	5.9139	8.83E-32	1.59E-15	-3.18E-15	-5.77004	-13.024	-7.16034	-0.82589	14.8181	8.95584	2.71083	12.5061	-7.27025	-1.31215	3.1304	19.142	0.675965	9.90674	0.0790651	-5.72782	-16.5001	-1.44189	1.54E-14	3.18E-14	4.77E-15
